<?xml version="1.0" encoding="utf-8"?>
<!-- Generator: Adobe Illustrator 25.4.8, SVG Export Plug-In . SVG Version: 6.00 Build 0)  -->
<svg version="1.1" id="图层_1" xmlns="http://www.w3.org/2000/svg" xmlns:xlink="http://www.w3.org/1999/xlink" x="0px" y="0px"
	 viewBox="0 0 20 20" style="enable-background:new 0 0 20 20;" xml:space="preserve">
<style type="text/css">
	.st0{fill:#1A1A1A;}
</style>
<path class="st0" d="M20,9.2h-2c-0.4-3.8-3.4-6.8-7.2-7.2V0H9.2v2.1C5.5,2.4,2.4,5.5,2.1,9.2H0v1.5h2.1c0.3,3.8,3.4,6.9,7.2,7.2v2
	h1.5v-2c3.8-0.3,6.9-3.4,7.2-7.2h2V9.2z M16.5,9.2h-5.7V3.6C13.7,3.9,16.1,6.3,16.5,9.2z M9.2,3.6v5.7H3.6C3.9,6.3,6.3,3.9,9.2,3.6z
	 M3.6,10.8h5.7v5.7C6.3,16.1,3.9,13.7,3.6,10.8z M10.8,16.5v-5.7h5.7C16.2,13.8,13.8,16.2,10.8,16.5z"/>
</svg>
