<?xml version="1.0" encoding="utf-8"?>
<!-- Generator: Adobe Illustrator 25.4.8, SVG Export Plug-In . SVG Version: 6.00 Build 0)  -->
<svg version="1.1" id="图层_1" xmlns="http://www.w3.org/2000/svg" xmlns:xlink="http://www.w3.org/1999/xlink" x="0px" y="0px"
	 viewBox="0 0 20 20" style="enable-background:new 0 0 20 20;" xml:space="preserve">
<style type="text/css">
	.st0{fill:#FFFFFF;}
	.st1{fill:#1A1A1A;}
</style>
<g id="MENU-关闭" transform="translate(-237 -240)">
	<g id="椭圆_2" transform="translate(237 240)">
		<circle class="st0" cx="10" cy="10" r="10"/>
		<path class="st1" d="M10,20C4.5,20,0,15.5,0,10S4.5,0,10,0s10,4.5,10,10S15.5,20,10,20z M10,1.5c-4.7,0-8.5,3.8-8.5,8.5
			s3.8,8.5,8.5,8.5s8.5-3.8,8.5-8.5S14.7,1.5,10,1.5z"/>
	</g>
	
		<rect x="246.2" y="238" transform="matrix(0.7071 -0.7071 0.7071 0.7071 -104.4198 247.8461)" class="st1" width="1.5" height="24"/>
	
		<rect x="235" y="249.2" transform="matrix(0.7071 -0.7071 0.7071 0.7071 -104.4197 247.8465)" class="st1" width="24" height="1.5"/>
</g>
</svg>
